<svg t="1599736619923" class="icon" viewBox="0 0 1024 1024" version="1.1" xmlns="http://www.w3.org/2000/svg" p-id="6630" width="200" height="200"><path d="M1023.584888 350.327017c-0.106658-0.682611-0.255979-1.279895-0.341305-1.919844a44.028404 44.028404 0 0 0-0.789269-3.690365c-0.191984-0.725274-0.469295-1.429217-0.703943-2.133159a53.990257 53.990257 0 0 0-1.109242-3.199739 21.907544 21.907544 0 0 0-0.981254-2.133159 22.718145 22.718145 0 0 0-1.514543-2.922428c-0.383969-0.703943-0.831932-1.365222-1.258564-2.047833a43.196472 43.196472 0 0 0-5.567545-6.97543c-0.575953-0.575953-1.109243-1.194569-1.706527-1.706527a72.954042 72.954042 0 0 0-2.495796-2.111828c-0.682611-0.511958-1.322559-1.023916-2.00517-1.493211l-0.725274-0.554622L536.414007 7.46435a44.007073 44.007073 0 0 0-48.806681 0L19.656209 319.438872l-0.725274 0.554622a39.527439 39.527439 0 0 0-4.479634 3.62637c-0.618616 0.490627-1.173238 1.109243-1.770522 1.685196-0.746606 0.767937-1.493211 1.578538-2.175823 2.389138a28.28569 28.28569 0 0 0-3.34906 4.586292l-1.279895 2.047833a35.495768 35.495768 0 0 0-1.493211 2.901097 38.119554 38.119554 0 0 0-2.111828 5.332897c-0.234648 0.725274-0.490627 1.429217-0.682611 2.154491-0.319974 1.194569-0.53329 2.431801-0.767937 3.690365-0.12799 0.639948-0.277311 1.237232-0.362637 1.919844-0.234648 1.855848-0.4053 3.775692-0.4053 5.716866v311.974522c0 1.919843 0.170653 3.839686 0.426631 5.75953 0.063995 0.618616 0.213316 1.258564 0.341306 1.898511 0.213316 1.258564 0.447963 2.453133 0.767937 3.690366 0.191984 0.725274 0.447963 1.429217 0.682611 2.133159 0.341305 1.06658 0.682611 2.133159 1.151906 3.22107 0.277311 0.725274 0.639948 1.407885 0.93859 2.133159 0.490627 0.981253 0.959922 1.941175 1.514543 2.94376 0.426632 0.661279 0.831932 1.34389 1.279895 2.005169a38.908822 38.908822 0 0 0 5.546214 6.932768 39.527439 39.527439 0 0 0 6.250156 5.332897l0.703943 0.575953 467.951117 311.974522a43.96441 43.96441 0 0 0 48.806681 0l467.972449-311.974522 0.725274-0.554621c0.682611-0.469295 1.322559-0.981253 2.00517-1.493211a72.954042 72.954042 0 0 0 2.495796-2.13316c0.597285-0.53329 1.130574-1.109243 1.706527-1.706527a38.652843 38.652843 0 0 0 5.567545-6.954099c0.426632-0.682611 0.874595-1.34389 1.258564-2.005169 0.575953-1.002585 1.06658-1.962506 1.493212-2.94376 0.362637-0.725274 0.725274-1.407885 1.002585-2.133159 0.426632-1.06658 0.767937-2.154491 1.109242-3.22107 0.234648-0.703943 0.511958-1.407885 0.703943-2.133159 0.319974-1.237232 0.554621-2.431801 0.789269-3.690366 0.085326-0.639948 0.234648-1.279895 0.341305-1.87718 0.255979-1.919843 0.383969-3.839686 0.383969-5.759529V356.065215c0-1.962506-0.12799-3.88235-0.383969-5.738198zM555.996408 126.302645L900.757586 356.107878l-153.971426 103.010254-190.768421-127.605579v-205.209908z m-87.992814 0v205.209908l-190.725757 127.605579-154.014089-103.010254L468.046257 126.302645zM88.045291 438.405157L198.158965 512.04181l-110.113674 73.636653v-147.273306z m379.979635 459.375818L123.263748 667.975742l153.992757-102.988923 190.725757 127.584248v205.209908zM512.010667 616.139975L356.41804 512.04181 512.010667 407.943645 667.645956 512.04181 512.010667 616.139975z m44.007072 281.641v-205.209908l190.747089-127.562916 153.971426 102.967591-344.718515 229.805233z m379.958304-312.102512L825.905032 512.04181l110.071011-73.636653v147.273306z" fill="#0B0B0A" p-id="6631"></path></svg>
