<svg t="1599741053339" class="icon" viewBox="0 0 1145 1024" version="1.1" xmlns="http://www.w3.org/2000/svg" p-id="4693" width="200" height="200"><path d="M517.499472 239.353883l-73.634461 13.51091-72.621143 13.173138V40.405728a34.317712 34.317712 0 0 1 67.554552-12.159819l47.288186 129.704739zM768.464632 40.405728v225.969976l-71.270052-13.510911-73.634462-13.51091L703.950035 28.245909a33.777276 33.777276 0 0 1 64.514597 12.159819zM330.373364 479.510314a24.319639 24.319639 0 0 1 0 4.391046 231.036567 231.036567 0 0 1-38.506094 11.822046 219.552293 219.552293 0 0 1-25.332957 3.715501H222.961627A243.534159 243.534159 0 0 1 17.258018 166.73274a242.858613 242.858613 0 0 1 85.79428-15.537547c122.611511 0 190.841608 90.860872 202.663655 208.743565v33.777275a67.554552 67.554552 0 0 0 6.417683 26.346276c3.377728 8.106546 7.431001 15.87532 11.146501 23.644093a104.034009 104.034009 0 0 1 6.079909 16.550865 38.843867 38.843867 0 0 1 1.013318 19.253047z" fill="#CB8E2D" p-id="4694"></path><path d="M243.227993 433.573219a177.668471 177.668471 0 0 1-173.615198-213.134611 178.681789 178.681789 0 0 1 33.777276-3.039954c127.34033 0 137.473513 135.109103 137.473513 177.330698a123.624829 123.624829 0 0 0 6.755455 39.18164z" fill="#B3672B" p-id="4695"></path><path d="M832.303683 394.391579c0 31.750639-33.777276 61.812415-22.968548 89.509781a243.196386 243.196386 0 0 0 312.102029-317.16862 242.183068 242.183068 0 0 0-86.469826-15.537547c-133.082467 0-202.663655 108.087283-202.663655 243.196386z" fill="#CB8E2D" p-id="4696"></path><path d="M895.804962 433.573219a177.668471 177.668471 0 0 0 172.939652-213.134611 178.681789 178.681789 0 0 0-33.777276-3.039954c-127.34033 0-137.473513 135.109103-137.473513 177.330698a123.962602 123.962602 0 0 1-6.755455 39.18164z" fill="#B3672B" p-id="4697"></path><path d="M919.111282 474.781495a112.478328 112.478328 0 0 1-35.803913 82.416553 97.9541 97.9541 0 0 0-30.061775 56.070278V623.063736a728.913612 728.913612 0 0 1-28.710684 172.60188c-4.728819 15.199774-9.79541 29.724003-15.537547 43.910458-45.599322 111.802783-124.97592 184.423926-238.467568 184.423926-98.629645 0-171.588561-55.05696-218.876747-142.877877a451.602178 451.602178 0 0 1-26.008502-53.030323 632.310603 632.310603 0 0 1-33.777276-145.242286c-2.364409-19.59082-4.391046-39.519413-5.404364-59.785778a94.576372 94.576372 0 0 0-3.039955-19.59082 98.629645 98.629645 0 0 0-28.035139-46.274868 112.478328 112.478328 0 0 1-33.777276-58.434687 112.478328 112.478328 0 0 1 5.404364-67.554551 108.087283 108.087283 0 0 1 13.510911-24.319639 112.478328 112.478328 0 0 1 42.89714-35.803912 101.331827 101.331827 0 0 0 20.604138-13.173138 98.291873 98.291873 0 0 0 28.710685-38.168322c3.377728-7.768773 6.755455-15.199774 10.133183-22.293002a371.550034 371.550034 0 0 1 19.590819-33.777275l6.417683-9.79541a294.200072 294.200072 0 0 1 29.38623-36.817231l11.484274-11.484274a236.440931 236.440931 0 0 1 76.336643-47.625959l16.213092-5.742137a228.672157 228.672157 0 0 1 67.554552-9.79541 224.956657 224.956657 0 0 1 83.092098 15.537547 228.672157 228.672157 0 0 1 61.474642 33.777276 272.920389 272.920389 0 0 1 45.26155 47.288186l9.79541 13.510911a379.994353 379.994353 0 0 1 36.479458 67.554551 101.331827 101.331827 0 0 0 16.550865 26.346275 95.251918 95.251918 0 0 0 12.497592 11.822047 101.331827 101.331827 0 0 0 20.604138 13.173137 111.802783 111.802783 0 0 1 42.897141 35.803913 107.74951 107.74951 0 0 1 13.51091 24.319638 111.46501 111.46501 0 0 1 7.093228 43.234913z" fill="#B3672B" p-id="4698"></path><path d="M714.42099 191.727924a129.029194 129.029194 0 0 1-89.847553 37.830549h-5.066592a141.189013 141.189013 0 0 1-49.990368-8.782092 101.331827 101.331827 0 0 1-67.554551-70.932279 228.672157 228.672157 0 0 1 67.554551-9.79541 224.956657 224.956657 0 0 1 83.429871 17.901956 228.672157 228.672157 0 0 1 61.474642 33.777276zM853.245594 613.268326V623.063736a727.900294 727.900294 0 0 1-28.710684 172.60188q-7.093228 22.968548-15.537547 43.910458a160.104287 160.104287 0 0 1-30.737321-98.629645c-1.013318-66.203461 32.426185-120.922647 74.985552-127.678103zM361.786231 813.229799a200.637018 200.637018 0 0 1-11.146501 67.554552 451.602178 451.602178 0 0 1-24.995184-52.692551 632.310603 632.310603 0 0 1-33.777276-145.242286c39.519413 7.093228 69.918961 62.825733 69.918961 130.380285zM484.059969 334.268028c-24.995184 29.724003-76.674416 27.359593-115.518283-5.404364a114.504965 114.504965 0 0 1-24.995184-29.38623 371.550034 371.550034 0 0 1 19.59082-33.777276l6.417682-9.79541a294.200072 294.200072 0 0 1 29.38623-36.817231c11.484274 8.106546 23.981866 19.59082 37.492777 31.075094l5.742136 4.728819c36.479458 28.372912 65.527915 51.003686 41.883822 79.376598zM822.1705 348.116711l-5.742137 5.742137c-36.141685 36.141685-69.243415 62.150187-101.331827 29.048457s-23.644093-82.416553 12.497592-118.558238a122.611511 122.611511 0 0 1 33.777276-23.644093 373.914443 373.914443 0 0 1 46.274868 81.065462 98.967418 98.967418 0 0 0 14.524228 26.346275z" fill="#A55723" p-id="4699"></path><path d="M451.248435 468.396027a42.559368 49.314823 45 1 0 69.741691-69.741691 42.559368 49.314823 45 1 0-69.741691 69.741691Z" fill="#A55723" p-id="4700"></path><path d="M553.912491 400.038093a64.85237 61.812415 45 1 0 87.415955-87.415955 64.85237 61.812415 45 1 0-87.415955 87.415955Z" fill="#A55723" p-id="4701"></path><path d="M400.967871 773.372613a211.107974 168.548606 90 1 0 337.097212 0 211.107974 168.548606 90 1 0-337.097212 0Z" fill="#DAB88B" p-id="4702"></path><path d="M486.891225 670.033906a20.604138 27.697366 30.05 1 0 27.73922-47.949057 20.604138 27.697366 30.05 1 0-27.73922 47.949057Z" fill="#411611" p-id="4703"></path><path d="M620.141136 656.635388a27.697366 20.604138 59.94 1 0 35.665818-20.641498 27.697366 20.604138 59.94 1 0-35.665818 20.641498Z" fill="#411611" p-id="4704"></path><path d="M569.516477 934.827992a101.331827 101.331827 0 0 1-87.820917-50.665914 11.822047 11.822047 0 0 1 20.266366-11.822046 77.687734 77.687734 0 0 0 135.109103 0 11.822047 11.822047 0 0 1 20.266365 11.822046 101.331827 101.331827 0 0 1-87.820917 50.665914z" fill="#411611" p-id="4705"></path><path d="M329.145845 470.12989m-13.772305 69.238053a70.594506 70.594506 0 1 0 27.54461-138.476106 70.594506 70.594506 0 1 0-27.54461 138.476106Z" fill="#FFFFFF" p-id="4706"></path><path d="M283.085178 421.4134h1.351091v70.256733h-1.351091zM284.436269 421.4134h2.026637v70.256733h-2.026637zM286.462906 421.4134h2.026636v70.256733h-2.026636z" fill="#E8E8E8" p-id="4707"></path><path d="M288.489542 421.4134h2.026637v70.256733h-2.026637z" fill="#E8E8E8" p-id="4708"></path><path d="M290.178406 421.4134h2.026637v70.256733h-2.026637zM292.205043 421.4134h2.026636v70.256733h-2.026636zM294.231679 421.4134h2.026637v70.256733h-2.026637z" fill="#E8E8E8" p-id="4709"></path><path d="M296.258316 421.4134h2.026636v70.256733h-2.026636z" fill="#E8E8E8" p-id="4710"></path><path d="M298.284952 421.4134h2.026637v70.256733h-2.026637zM300.311589 421.4134h2.026637v70.256733h-2.026637z" fill="#E7E7E7" p-id="4711"></path><path d="M302.338226 421.4134h2.026636v70.256733h-2.026636zM304.364862 421.4134h2.026637v70.256733h-2.026637z" fill="#E7E7E7" p-id="4712"></path><path d="M306.053726 421.4134h2.026636v70.256733h-2.026636z" fill="#E6E6E6" p-id="4713"></path><path d="M308.080362 421.4134h2.026637v70.256733h-2.026637z" fill="#E6E6E6" p-id="4714"></path><path d="M310.106999 421.4134h2.026637v70.256733h-2.026637z" fill="#E5E6E6" p-id="4715"></path><path d="M312.133636 421.4134h2.026636v70.256733h-2.026636z" fill="#E5E5E5" p-id="4716"></path><path d="M314.160272 421.4134h2.026637v70.256733H314.160272z" fill="#E4E5E5" p-id="4717"></path><path d="M316.186909 421.4134h2.026636v70.256733h-2.026636z" fill="#E4E4E4" p-id="4718"></path><path d="M318.213545 421.4134h2.026637v70.256733h-2.026637zM320.240182 421.4134h2.026636v70.256733h-2.026636z" fill="#E3E3E3" p-id="4719"></path><path d="M321.929046 421.4134h2.026636v70.256733h-2.026636z" fill="#E2E2E2" p-id="4720"></path><path d="M323.955682 421.4134h2.026637v70.256733h-2.026637z" fill="#E1E1E1" p-id="4721"></path><path d="M325.982319 421.4134h2.026636v70.256733h-2.026636z" fill="#E0E0E0" p-id="4722"></path><path d="M328.008955 421.4134h2.026637v70.256733h-2.026637z" fill="#DFDFDF" p-id="4723"></path><path d="M330.035592 421.4134h2.026636v70.256733h-2.026636z" fill="#DEDEDE" p-id="4724"></path><path d="M332.062228 421.4134h2.026637v70.256733h-2.026637z" fill="#DDDDDD" p-id="4725"></path><path d="M334.088865 421.4134h2.026636v70.256733h-2.026636z" fill="#DCDCDC" p-id="4726"></path><path d="M336.115501 421.4134h2.026637v70.256733h-2.026637z" fill="#DBDBDB" p-id="4727"></path><path d="M337.804365 421.4134h2.026637v70.256733H337.804365z" fill="#DADADA" p-id="4728"></path><path d="M339.831002 421.4134h2.026636v70.256733h-2.026636z" fill="#D9D9D9" p-id="4729"></path><path d="M341.857638 421.4134h2.026637v70.256733h-2.026637z" fill="#D7D8D8" p-id="4730"></path><path d="M343.884275 421.4134h2.026636v70.256733h-2.026636z" fill="#D6D6D6" p-id="4731"></path><path d="M345.910911 421.4134h2.026637v70.256733h-2.026637z" fill="#D4D5D5" p-id="4732"></path><path d="M347.937548 421.4134h2.026636v70.256733h-2.026636z" fill="#D3D3D3" p-id="4733"></path><path d="M349.964184 421.4134h2.026637v70.256733h-2.026637z" fill="#D1D2D2" p-id="4734"></path><path d="M351.990821 421.4134h2.026637v70.256733h-2.026637z" fill="#D0D0D0" p-id="4735"></path><path d="M353.679685 421.4134h2.026636v70.256733h-2.026636z" fill="#CECECE" p-id="4736"></path><path d="M355.706321 421.4134h2.026637v70.256733h-2.026637z" fill="#CCCDCD" p-id="4737"></path><path d="M357.732958 421.4134h2.026636v70.256733h-2.026636z" fill="#CACBCB" p-id="4738"></path><path d="M359.759594 421.4134h2.026637v70.256733h-2.026637z" fill="#C8C9C9" p-id="4739"></path><path d="M361.786231 421.4134h2.026637v70.256733h-2.026637z" fill="#C6C7C7" p-id="4740"></path><path d="M363.812868 421.4134h2.026636v70.256733h-2.026636z" fill="#C4C5C5" p-id="4741"></path><path d="M365.839504 421.4134h2.026637v70.256733h-2.026637z" fill="#C2C3C3" p-id="4742"></path><path d="M367.866141 421.4134h2.026636v70.256733h-2.026636z" fill="#C0C1C1" p-id="4743"></path><path d="M369.555004 421.4134H371.581641v70.256733h-2.026637z" fill="#BDBEBE" p-id="4744"></path><path d="M371.581641 421.4134h2.026636v70.256733H371.581641zM373.608277 421.4134h4.053274v70.256733h-4.053274z" fill="#BBBCBC" p-id="4745"></path><path d="M342.870957 472.079313a42.89714 42.89714 0 0 1 27.02182 15.87532 46.612641 46.612641 0 0 0 2.702182-8.782092 44.586004 44.586004 0 1 0-87.483144-17.22641 44.248231 44.248231 0 0 0 4.728818 30.399548 52.69255 52.69255 0 0 1 53.030324-20.266366z" p-id="4746"></path><path d="M806.527023 470.171089m-69.238053 13.772305a70.594506 70.594506 0 1 0 138.476106-27.54461 70.594506 70.594506 0 1 0-138.476106 27.54461Z" fill="#FFFFFF" p-id="4747"></path><path d="M757.993676 421.4134h4.053273v70.256733h-4.053273z" fill="#E8E8E8" p-id="4748"></path><path d="M761.709177 421.4134h2.026636v70.256733h-2.026636zM763.735813 421.4134h2.026637v70.256733h-2.026637zM765.76245 421.4134h2.026636v70.256733h-2.026636zM767.789086 421.4134h2.026637v70.256733h-2.026637zM769.815723 421.4134h2.026636v70.256733h-2.026636zM771.842359 421.4134h2.026637v70.256733h-2.026637zM773.868996 421.4134h2.026636v70.256733h-2.026636z" fill="#E8E8E8" p-id="4749"></path><path d="M775.895632 421.4134h2.026637v70.256733h-2.026637z" fill="#E7E7E7" p-id="4750"></path><path d="M777.584496 421.4134h2.026637v70.256733h-2.026637zM779.611133 421.4134h2.026636v70.256733h-2.026636zM781.637769 421.4134h2.026637v70.256733h-2.026637z" fill="#E7E7E7" p-id="4751"></path><path d="M783.664406 421.4134h2.026636v70.256733h-2.026636zM785.691042 421.4134h2.026637v70.256733h-2.026637z" fill="#E6E6E6" p-id="4752"></path><path d="M787.717679 421.4134h2.026636v70.256733h-2.026636z" fill="#E5E6E6" p-id="4753"></path><path d="M789.744315 421.4134h2.026637v70.256733h-2.026637z" fill="#E5E5E5" p-id="4754"></path><path d="M791.770952 421.4134h2.026637v70.256733h-2.026637z" fill="#E4E5E5" p-id="4755"></path><path d="M793.459816 421.4134h2.026636v70.256733h-2.026636z" fill="#E4E4E4" p-id="4756"></path><path d="M795.486452 421.4134h2.026637v70.256733h-2.026637zM797.513089 421.4134h2.026636v70.256733h-2.026636z" fill="#E3E3E3" p-id="4757"></path><path d="M799.539725 421.4134h2.026637v70.256733h-2.026637z" fill="#E2E2E2" p-id="4758"></path><path d="M801.566362 421.4134h2.026637v70.256733h-2.026637z" fill="#E1E1E1" p-id="4759"></path><path d="M803.592999 421.4134h2.026636v70.256733h-2.026636z" fill="#E0E0E0" p-id="4760"></path><path d="M805.619635 421.4134h2.026637v70.256733h-2.026637z" fill="#DFDFDF" p-id="4761"></path><path d="M807.646272 421.4134h2.026636v70.256733h-2.026636z" fill="#DEDEDE" p-id="4762"></path><path d="M809.335135 421.4134h2.026637v70.256733h-2.026637z" fill="#DDDDDD" p-id="4763"></path><path d="M811.361772 421.4134h2.026637v70.256733h-2.026637z" fill="#DCDCDC" p-id="4764"></path><path d="M813.388409 421.4134h2.026636v70.256733h-2.026636z" fill="#DBDBDB" p-id="4765"></path><path d="M815.415045 421.4134h2.026637v70.256733h-2.026637z" fill="#DADADA" p-id="4766"></path><path d="M817.441682 421.4134h2.026636v70.256733h-2.026636z" fill="#D9D9D9" p-id="4767"></path><path d="M819.468318 421.4134h2.026637v70.256733h-2.026637z" fill="#D7D8D8" p-id="4768"></path><path d="M821.494955 421.4134h2.026636v70.256733h-2.026636z" fill="#D6D6D6" p-id="4769"></path><path d="M823.521591 421.4134h2.026637v70.256733h-2.026637z" fill="#D4D5D5" p-id="4770"></path><path d="M825.210455 421.4134h2.026637v70.256733h-2.026637z" fill="#D3D3D3" p-id="4771"></path><path d="M827.237092 421.4134h2.026636v70.256733h-2.026636z" fill="#D1D2D2" p-id="4772"></path><path d="M829.263728 421.4134h2.026637v70.256733h-2.026637z" fill="#D0D0D0" p-id="4773"></path><path d="M831.290365 421.4134h2.026636v70.256733h-2.026636z" fill="#CECECE" p-id="4774"></path><path d="M833.317001 421.4134h2.026637v70.256733h-2.026637z" fill="#CCCDCD" p-id="4775"></path><path d="M835.343638 421.4134h2.026636v70.256733h-2.026636z" fill="#CACBCB" p-id="4776"></path><path d="M837.370274 421.4134h2.026637v70.256733h-2.026637z" fill="#C8C9C9" p-id="4777"></path><path d="M839.396911 421.4134h2.026636v70.256733h-2.026636z" fill="#C6C7C7" p-id="4778"></path><path d="M841.085775 421.4134h2.026636v70.256733h-2.026636z" fill="#C4C5C5" p-id="4779"></path><path d="M843.112411 421.4134h2.026637v70.256733h-2.026637z" fill="#C2C3C3" p-id="4780"></path><path d="M845.139048 421.4134h2.026636v70.256733h-2.026636z" fill="#C0C1C1" p-id="4781"></path><path d="M847.165684 421.4134h2.026637v70.256733h-2.026637z" fill="#BDBEBE" p-id="4782"></path><path d="M849.192321 421.4134h2.026636v70.256733h-2.026636zM851.218957 421.4134h1.351091v70.256733h-1.351091z" fill="#BBBCBC" p-id="4783"></path><path d="M792.446498 472.079313a42.89714 42.89714 0 0 0-27.021821 15.87532 45.937095 45.937095 0 0 1-2.702182-8.782092 44.586004 44.586004 0 1 1 87.483144-17.22641 44.248231 44.248231 0 0 1-4.728818 30.399548 52.69255 52.69255 0 0 0-53.030323-20.266366z" p-id="4784"></path></svg>
