<?xml version="1.0" standalone="no"?><!DOCTYPE svg PUBLIC "-//W3C//DTD SVG 1.1//EN" "http://www.w3.org/Graphics/SVG/1.1/DTD/svg11.dtd"><svg t="1600411335821" class="icon" viewBox="0 0 1024 1024" version="1.1" xmlns="http://www.w3.org/2000/svg" p-id="3243" width="64" height="64" xmlns:xlink="http://www.w3.org/1999/xlink"><defs><style type="text/css"></style></defs><path d="M465.67936 717.2864c-141.1584 0-256-114.8416-256-256s114.8416-256 256-256 256 114.8416 256 256-114.8416 256-256 256z m0-471.04c-118.57408 0-215.04 96.46592-215.04 215.04s96.46592 215.04 215.04 215.04 215.04-96.46592 215.04-215.04-96.46592-215.04-215.04-215.04z" p-id="3244"></path><path d="M744.192 767.03744a20.41344 20.41344 0 0 1-14.47936-6.00064l-108.61056-108.61056a20.48 20.48 0 1 1 28.95872-28.95872l108.61056 108.61056a20.48 20.48 0 0 1-14.47936 34.95936z" p-id="3245"></path><path d="M808.3456 791.01952l-21.72416 21.72416a20.53632 20.53632 0 0 1-28.96384 0l-79.64672-79.64672a20.53632 20.53632 0 0 1 0-28.96384l21.72416-21.72416a20.53632 20.53632 0 0 1 28.96384 0l79.64672 79.64672a20.53632 20.53632 0 0 1 0 28.96384z" p-id="3246"></path></svg>